<svg xmlns="http://www.w3.org/2000/svg" xmlns:xlink="http://www.w3.org/1999/xlink" width="793" zoomAndPan="magnify" viewBox="0 0 595.5 842.249979" height="1122" preserveAspectRatio="xMidYMid meet" version="1.0"><defs><clipPath id="3db454bae6"><path d="M 45 113.851562 L 557 113.851562 L 557 695 L 45 695 Z M 45 113.851562 " clip-rule="nonzero"/></clipPath></defs><g clip-path="url(#3db454bae6)"><path fill="#000000" d="M 46.394531 406.261719 C 64.847656 535.460938 133.308594 554.441406 199.957031 625.996094 C 208.683594 644.230469 212.046875 664.609375 192.058594 694.328125 C 229.230469 680.621094 256.792969 664.402344 268.511719 661.714844 C 345.367188 647.03125 364.707031 632.410156 417.261719 609.199219 C 429.527344 603.785156 462.3125 579.683594 471.789062 574.753906 C 518.683594 531.636719 545.53125 455.8125 556.578125 404.8125 C 555.710938 321.183594 547.964844 241.773438 515.996094 197.914062 C 352.679688 114.097656 356.191406 133.152344 297.5 113.851562 C 229.257812 134.632812 161.015625 149.386719 92.777344 201.539062 C 58.515625 246.585938 42.46875 326.824219 46.394531 406.261719 Z M 405.339844 192.871094 C 474.132812 224.941406 493.191406 237.027344 502.484375 254.226562 C 509.457031 267.242188 521.078125 379.261719 518.289062 404.363281 C 514.570312 434.113281 503.414062 469.4375 491.332031 490.355469 C 481.570312 507.089844 446.707031 546.132812 441.59375 546.132812 C 439.734375 546.132812 429.507812 537.765625 418.820312 527.542969 C 406.269531 515.457031 390.929688 506.625 374.195312 501.976562 C 360.25 497.792969 348.628906 492.679688 348.628906 490.820312 C 348.628906 488.960938 361.179688 484.777344 376.054688 481.523438 C 405.339844 475.015625 434.621094 455.027344 441.59375 436.4375 C 443.917969 430.859375 450.425781 425.28125 456.46875 424.351562 C 466.230469 422.957031 467.160156 420.632812 467.160156 392.742188 C 467.160156 365.785156 466.230469 362.066406 456.46875 357.417969 C 450.425781 354.164062 441.59375 345.796875 436.945312 337.894531 C 432.296875 329.992188 420.675781 318.835938 411.382812 312.328125 L 394.648438 301.171875 L 434.621094 285.835938 C 477.386719 269.101562 485.753906 257.480469 462.046875 248.183594 C 455.074219 245.859375 419.285156 230.054688 382.5625 212.859375 C 345.839844 196.125 309.585938 182.179688 302.613281 182.644531 C 295.640625 182.644531 270.074219 191.941406 245.90625 203.5625 C 221.734375 214.71875 188.730469 229.589844 172 237.027344 C 132.953125 254.226562 125.515625 260.269531 134.8125 268.636719 C 138.53125 272.355469 151.082031 278.398438 162.703125 282.582031 C 174.324219 286.765625 189.660156 292.34375 197.097656 295.132812 L 210.113281 299.777344 L 189.195312 318.835938 C 177.578125 329.0625 166.421875 341.148438 165.027344 346.261719 C 163.632812 350.910156 157.589844 355.558594 152.011719 356.488281 C 142.714844 357.882812 141.785156 360.207031 141.785156 390.417969 C 141.785156 420.632812 142.714844 422.957031 152.011719 424.351562 C 157.589844 425.28125 163.632812 429.929688 165.027344 434.578125 C 170.605469 452.242188 203.605469 475.015625 232.425781 481.058594 C 247.765625 484.3125 260.316406 488.496094 260.316406 490.820312 C 260.316406 492.679688 248.695312 497.792969 234.285156 501.976562 C 217.550781 506.625 201.28125 515.921875 188.265625 528.007812 L 167.816406 547.0625 L 153.871094 537.300781 C 125.050781 516.851562 96.699219 460.140625 90.65625 410.40625 C 86.9375 381.585938 95.304688 277.46875 103.207031 257.015625 C 105.53125 250.507812 112.035156 240.746094 117.613281 235.632812 C 127.839844 226.335938 211.972656 186.363281 262.640625 166.375 C 303.542969 150.570312 321.671875 153.824219 405.339844 192.871094 Z M 267.285156 327.667969 C 290.0625 331.386719 313.304688 330.921875 345.839844 327.203125 L 391.394531 322.089844 L 408.128906 338.359375 C 423 353.699219 424.859375 358.347656 426.71875 384.375 C 428.113281 409.011719 426.71875 415.984375 417.425781 429.464844 C 403.015625 450.847656 380.238281 461.535156 338.871094 467.113281 C 278.90625 474.550781 216.621094 461.070312 193.378906 435.042969 C 183.621094 424.351562 178.507812 391.8125 183.15625 367.644531 C 186.871094 348.121094 210.578125 323.019531 224.523438 323.019531 C 230.101562 323.019531 249.160156 325.34375 267.285156 327.667969 Z M 298.894531 521.5 C 314.699219 522.894531 331.433594 521.5 339.335938 518.246094 C 356.53125 511.273438 385.816406 519.640625 385.816406 531.726562 C 385.816406 545.203125 357.925781 583.320312 339.335938 594.941406 C 315.628906 609.816406 255.203125 640.027344 252.878906 637.703125 C 251.949219 636.773438 254.273438 627.476562 258.457031 616.785156 L 265.890625 597.730469 L 250.089844 577.742188 C 231.496094 554.964844 223.128906 540.554688 223.128906 530.332031 C 223.128906 521.5 245.441406 513.132812 260.316406 516.851562 C 266.820312 518.246094 284.019531 520.105469 298.894531 521.5 Z M 298.894531 521.5 " fill-opacity="1" fill-rule="nonzero"/></g><path fill="#000000" d="M 228.707031 366.25 C 223.128906 372.292969 218.480469 382.980469 218.480469 389.953125 C 218.480469 405.757812 237.539062 425.28125 253.34375 425.28125 C 268.679688 425.28125 288.203125 405.757812 288.203125 390.417969 C 288.203125 374.152344 268.679688 355.558594 251.949219 355.558594 C 244.046875 355.558594 234.75 359.742188 228.707031 366.25 Z M 254.273438 367.644531 C 255.667969 371.363281 253.34375 378.332031 249.160156 382.515625 C 242.1875 389.488281 241.257812 389.488281 233.820312 382.515625 C 227.777344 376.011719 227.3125 373.222656 232.425781 367.644531 C 239.863281 358.347656 250.554688 358.347656 254.273438 367.644531 Z M 254.273438 367.644531 " fill-opacity="1" fill-rule="nonzero"/><path fill="#000000" d="M 352.347656 360.207031 C 363.96875 365.320312 365.828125 375.082031 356.066406 382.980469 C 345.839844 391.8125 333.292969 383.910156 336.082031 369.96875 C 338.40625 358.347656 337.941406 358.347656 331.898438 367.179688 C 321.207031 381.585938 325.390625 406.6875 340.265625 417.378906 C 362.574219 433.648438 390.464844 418.773438 390.464844 389.953125 C 390.464844 369.503906 376.984375 355.558594 356.996094 356.023438 C 343.050781 356.023438 342.585938 356.488281 352.347656 360.207031 Z M 352.347656 360.207031 " fill-opacity="1" fill-rule="nonzero"/><path stroke-linecap="butt" transform="matrix(3.486153, 0, 0, 3.486153, 0.0151321, 113.851012)" fill-opacity="1" fill="#ffffff" fill-rule="nonzero" stroke-linejoin="miter" d="M 45.420904 122.278552 C 42.652138 120.314308 40.049206 117.794294 38.138746 115.229459 C 31.964768 106.942209 27.269855 95.063743 26.074277 84.709163 C 25.756053 81.957204 25.930852 71.399813 26.3925 65.377102 C 27.306831 53.479587 28.395962 45.255086 29.532153 41.68628 C 30.399423 38.964575 32.584407 35.84285 34.611399 34.434376 C 40.036881 30.661638 68.18619 17.553978 78.009651 14.227201 C 81.624398 13.00249 83.349975 12.699954 86.684596 12.705556 C 93.27092 12.716761 99.898703 15.053013 119.321524 24.210894 C 132.402292 30.37815 138.095574 33.660107 141.422351 36.951028 C 143.194989 38.704618 144.067862 40.081717 144.566486 41.912621 C 146.639419 49.520846 149.297256 77.283581 148.545397 83.462042 C 147.467472 92.314026 143.765326 103.511225 140.056457 109.136157 C 136.651244 114.300561 128.013276 123.790112 126.717973 123.790112 C 126.170047 123.790112 124.313371 122.359228 121.271202 119.591582 C 119.827992 118.278351 118.063198 116.754466 117.347196 116.204298 C 114.703926 114.169462 110.971526 112.322871 107.263778 111.212451 C 104.77962 110.468436 101.459565 109.145121 100.67073 108.583748 C 100.081345 108.163559 100.062296 108.112016 100.406291 107.861023 C 100.967664 107.450918 104.248501 106.41109 107.184222 105.713016 C 110.684677 104.880481 113.006362 104.042344 115.930878 102.555435 C 120.787144 100.085844 124.792947 96.554014 126.378461 93.343769 C 127.707379 90.653438 128.981392 89.553103 131.30868 89.082491 C 133.77603 88.583867 134.028143 87.747971 134.028143 80.032178 C 134.028143 72.272686 133.792838 71.421102 131.232485 69.92635 C 129.277205 68.784556 127.003702 66.583885 125.559372 64.436999 C 123.319484 61.104619 120.530549 58.494965 115.937601 55.434867 C 114.647901 54.575441 113.666339 53.801172 113.754859 53.713773 C 113.843379 53.626373 116.769016 52.465531 120.256025 51.134372 C 126.926387 48.588586 132.547957 45.990137 134.283618 44.650013 C 135.624862 43.614668 136.26355 42.655516 136.26355 41.675075 C 136.26355 40.600511 135.022031 39.483368 132.828083 38.581362 C 128.752809 36.907329 123.853964 34.762683 118.17749 32.165355 C 103.548185 25.471462 97.124334 22.749757 91.154287 20.716042 C 87.334488 19.415136 86.309227 19.417377 82.423318 20.736211 C 79.019226 21.89033 74.503593 23.788464 67.455621 27.025601 C 64.540069 28.364604 58.413151 31.142334 53.840373 33.198459 C 43.135075 38.011025 40.031278 39.593178 38.61272 40.961313 C 37.401455 42.13112 37.275958 42.625262 37.922489 43.685259 C 38.980245 45.4198 42.361927 46.986265 54.25608 51.249784 C 57.228778 52.316504 59.733105 53.248764 59.822746 53.322717 C 59.911266 53.39667 58.554335 54.755842 56.808589 56.343596 C 50.262603 62.294595 48.50005 64.189368 47.219313 66.654477 C 46.413671 68.205255 45.134055 69.184576 43.45666 69.531932 C 42.835901 69.661911 42.095247 69.94988 41.810639 70.173981 C 40.821234 70.952732 40.743919 71.598142 40.743919 79.096557 C 40.743919 82.927561 40.817872 86.408968 40.907513 86.83476 C 41.161867 88.032579 41.931654 88.797883 43.14628 89.05784 C 45.157585 89.489234 46.717327 90.669125 47.293267 92.193011 C 48.505652 95.403256 52.928283 99.483012 58.077 102.139728 C 61.486695 103.89892 63.196584 104.530884 67.404078 105.590881 C 72.522542 106.878341 74.523762 107.61115 74.523762 108.197174 C 74.523762 108.5647 71.451339 109.870087 67.842195 111.036532 C 60.581327 113.382868 57.939178 115.003117 51.303552 121.18494 C 49.642964 122.732356 48.177345 123.992923 48.047366 123.9862 C 47.917388 123.980598 46.736376 123.211932 45.420904 122.278552 Z M 45.420904 122.278552 " stroke="#000000" stroke-width="0.027" stroke-opacity="1" stroke-miterlimit="4"/><path stroke-linecap="butt" transform="matrix(3.486153, 0, 0, 3.486153, 0.0151321, 113.851012)" fill-opacity="1" fill="#ffffff" fill-rule="nonzero" stroke-linejoin="miter" d="M 72.65252 149.663677 C 72.65252 148.644018 73.752855 145.371025 75.946803 139.867108 L 76.374835 138.792544 L 72.946092 134.461795 C 67.427609 127.488897 65.34235 124.334677 64.538948 121.74183 C 63.707534 119.055981 64.168061 117.999346 66.716088 116.744381 C 69.387371 115.428909 71.926433 115.224977 76.498091 115.958908 C 80.111717 116.539329 86.692439 117.138799 89.441036 117.137678 C 92.529146 117.136558 95.366263 116.74102 97.696912 115.98692 C 101.78115 114.665846 107.530458 115.739289 109.792756 118.243616 C 110.491951 119.016764 110.527807 119.126573 110.44601 120.25156 C 110.248801 122.988952 106.426761 129.083374 101.874152 133.921712 C 100.039886 135.870269 98.327756 137.282104 96.301884 138.519141 C 90.744183 141.909787 75.597205 149.507927 73.223977 150.093951 C 72.705184 150.222809 72.65252 150.183591 72.65252 149.663677 Z M 72.65252 149.663677 " stroke="#000000" stroke-width="0.027" stroke-opacity="1" stroke-miterlimit="4"/><path stroke-linecap="butt" transform="matrix(3.486153, 0, 0, 3.486153, 0.0151321, 113.851012)" fill-opacity="1" fill="#ffffff" fill-rule="nonzero" stroke-linejoin="miter" d="M 82.007611 101.631019 C 81.607591 101.583958 80.344782 101.449497 79.200747 101.329603 C 71.511847 100.529563 63.955166 98.202276 59.325242 95.206047 C 57.492097 94.020554 55.379946 92.032779 54.675149 90.829357 C 53.933375 89.564308 52.998875 86.606177 52.575324 84.190369 C 52.091266 81.424965 52.082302 75.533353 52.558516 73.172451 C 53.538958 68.312823 58.429959 62.165737 62.666586 60.471534 C 63.826308 60.006525 66.655581 60.14995 73.380848 61.014979 C 76.124963 61.367938 79.11783 61.746668 80.032161 61.856478 C 82.613803 62.167978 90.443887 62.10635 94.479944 61.744427 C 96.481165 61.564026 101.298213 61.054197 105.185242 60.610477 L 112.253383 59.803714 L 115.709019 63.266072 C 120.707588 68.274726 121.429193 69.583475 122.030904 74.723229 C 122.44437 78.255058 122.435406 84.030137 122.015217 85.644784 C 121.374288 88.10317 119.519854 91.08035 117.149987 93.454699 C 113.113931 97.498599 107.090099 99.848297 97.1826 101.244445 C 94.907977 101.564909 83.87213 101.846156 82.007611 101.631019 Z M 75.14116 88.888644 C 78.523963 87.603426 82.024418 83.631238 82.625008 80.396342 C 83.522532 75.569209 77.676861 69.32688 72.260344 69.32688 C 68.079742 69.32688 64.544551 72.248035 62.993773 76.982165 C 62.029019 79.92573 63.118149 83.12477 66.085244 86.066094 C 69.221536 89.175493 72.059773 90.059571 75.14116 88.888644 Z M 105.369005 88.760907 C 106.975808 88.341838 108.138891 87.632559 109.398338 86.300279 C 111.012985 84.593751 111.786133 82.753883 112.049451 79.987358 C 112.211925 78.277468 111.739072 75.763057 110.968165 74.241412 C 109.75802 71.853617 107.298513 70.049605 104.575688 69.552101 C 102.548695 69.182335 99.052722 69.302229 99.052722 69.741466 C 99.052722 69.826625 99.637625 70.14933 100.352507 70.458589 C 103.67032 71.896196 104.616026 73.729341 103.15825 75.897517 C 100.851131 79.330742 96.477803 78.576643 96.477803 74.745639 C 96.477803 74.109192 96.557359 72.957314 96.652602 72.185286 C 96.769134 71.241822 96.755688 70.782415 96.611143 70.782415 C 96.27163 70.782415 94.525885 73.466023 94.040706 74.731072 C 93.483816 76.185487 93.300053 78.865733 93.638445 80.595792 C 94.777998 86.416811 100.112719 90.130163 105.369005 88.760907 Z M 105.369005 88.760907 " stroke="#000000" stroke-width="0.027" stroke-opacity="1" stroke-miterlimit="4"/><path stroke-linecap="butt" transform="matrix(3.486153, 0, 0, 3.486153, 0.0151321, 113.851012)" fill-opacity="1" fill="#ffffff" fill-rule="nonzero" stroke-linejoin="miter" d="M 68.145852 77.874087 C 67.146362 77.150241 66.03146 75.840371 65.866746 75.199443 C 65.671778 74.434138 65.963109 73.723739 66.881923 72.72649 C 67.952005 71.566768 69.043376 70.989708 70.169483 70.989708 C 72.425058 70.989708 73.53996 73.195981 72.437383 75.473966 C 71.933156 76.516035 69.931936 78.473556 69.370563 78.473556 C 69.152065 78.473556 68.600777 78.203515 68.145852 77.874087 Z M 68.145852 77.874087 " stroke="#000000" stroke-width="0.027" stroke-opacity="1" stroke-miterlimit="4"/></svg>