<svg viewBox="0 0 24 24" xmlns="http://www.w3.org/2000/svg"><path d="M19.5 8.99h-15a.5.5 0 0 0-.5.5v12.5a2 2 0 0 0 2 2h12a2 2 0 0 0 2-2V9.49a.5.5 0 0 0-.5-.5Zm-9.25 11.5a.75.75 0 0 1-1.5 0v-8.625a.75.75 0 0 1 1.5 0Zm5 0a.75.75 0 0 1-1.5 0v-8.625a.75.75 0 0 1 1.5 0ZM20.922 4.851a11.806 11.806 0 0 0-4.12-1.07 4.945 4.945 0 0 0-9.607 0A12.157 12.157 0 0 0 3.18 4.805 1.943 1.943 0 0 0 2 6.476 1 1 0 0 0 3 7.49h18a1 1 0 0 0 1-.985 1.874 1.874 0 0 0-1.078-1.654ZM11.976 2.01A2.886 2.886 0 0 1 14.6 3.579a44.676 44.676 0 0 0-5.2 0 2.834 2.834 0 0 1 2.576-1.569Z" fill="#ff0000" class="fill-000000"></path></svg>