<svg viewBox="0 0 91 91" xml:space="preserve" xmlns="http://www.w3.org/2000/svg"><g fill="#ffffff" class="fill-647f94"><path d="M26.939 49.462c11.592 0 21.029-9.5 21.029-21.176S38.531 7.11 26.939 7.11c-11.588 0-21.018 9.5-21.018 21.176s9.431 21.176 21.018 21.176z"></path><path d="M44.877 46.202c-4.586 4.643-10.932 7.525-17.938 7.525-6.934 0-13.219-2.828-17.793-7.393C3.513 49.049.732 53.084.732 58.668V78.19c2.818 1.563 9.678 7.268 26.553 7.268 17.029 0 24.127-5.578 26.24-7.088V58.665c0-5.691-2.859-9.768-8.648-12.463z"></path></g><path d="M87.191 20.282H57.453a3.34 3.34 0 1 1 0-6.68h29.738a3.34 3.34 0 0 1 0 6.68zM87.191 39.185H57.453a3.34 3.34 0 1 1 0-6.68h29.738a3.34 3.34 0 0 1 0 6.68zM87.193 58.085H62.418a3.34 3.34 0 1 1 0-6.68h24.775a3.34 3.34 0 0 1 0 6.68zM87.193 76.987H62.418a3.34 3.34 0 1 1 0-6.68h24.775a3.34 3.34 0 1 1 0 6.68z" fill="#ffffff" class="fill-45596b"></path></svg>